<svg
              class="icon"
              viewBox="0 0 512 512"
              version="1.1"
              xmlns="http://www.w3.org/2000/svg"
              xmlns:xlink="http://www.w3.org/1999/xlink">
              <g id="Page-1" stroke-width="0" fill-rule="evenodd">
                <path
                  d="M437.019,74.982 C388.667,26.628 324.379,0 256,0 C187.621,0 123.333,26.628 74.982,74.982 C26.628,123.333 0,187.621 0,256 C0,324.379 26.628,388.667 74.982,437.019 C123.333,485.372 187.621,512 256,512 C324.379,512 388.667,485.372 437.019,437.018 C485.372,388.667 512,324.379 512,256 C512,187.621 485.372,123.333 437.019,74.982 Z M256,495.832 C123.756,495.832 16.168,388.244 16.168,256 C16.168,123.756 123.756,16.168 256,16.168 C388.244,16.168 495.832,123.756 495.832,256 C495.832,388.244 388.244,495.832 256,495.832 Z"
                  id="Shape"></path>
                <g id="Group" transform="translate(48.746000, 115.079000)">
                  <path
                    d="M22.666,143.996 C22.666,147.309 19.98,149.996 16.666,149.996 L6,149.996 C2.686,149.996 2.84217094e-14,147.309 2.84217094e-14,143.996 L2.84217094e-14,137.496 C2.84217094e-14,134.183 2.686,131.496 6,131.496 L16.666,131.496 C19.98,131.496 22.666,134.183 22.666,137.496 L22.666,143.996 Z"
                    id="Path"></path>
                  <path
                    d="M55.332,159.746 C55.332,163.059 52.646,165.746 49.332,165.746 L38.666,165.746 C35.352,165.746 32.666,163.059 32.666,159.746 L32.666,122.246 C32.666,118.933 35.352,116.246 38.666,116.246 L49.332,116.246 C52.646,116.246 55.332,118.933 55.332,122.246 L55.332,159.746 L55.332,159.746 Z"
                    id="Path"></path>
                  <path
                    d="M87.998,167.5 C87.998,170.813 85.312,173.5 81.998,173.5 L71.332,173.5 C68.018,173.5 65.332,170.813 65.332,167.5 L65.332,114.5 C65.332,111.187 68.018,108.5 71.332,108.5 L81.998,108.5 C85.312,108.5 87.998,111.187 87.998,114.5 L87.998,167.5 Z"
                    id="Path"></path>
                  <path
                    d="M120.664,183 C120.664,186.313 117.978,189 114.664,189 L103.998,189 C100.684,189 97.998,186.313 97.998,183 L97.998,99 C97.998,95.687 100.684,93 103.998,93 L114.664,93 C117.978,93 120.664,95.687 120.664,99 L120.664,183 Z"
                    id="Path"></path>
                  <path
                    d="M153.33,214 C153.33,217.313 150.644,220 147.33,220 L136.664,220 C133.35,220 130.664,217.313 130.664,214 L130.664,68 C130.664,64.687 133.35,62 136.664,62 L147.33,62 C150.644,62 153.33,64.687 153.33,68 L153.33,214 Z"
                    id="Path"></path>
                  <path
                    d="M185.996,229.5 C185.996,232.813 183.31,235.5 179.996,235.5 L169.33,235.5 C166.016,235.5 163.33,232.813 163.33,229.5 L163.33,52.5 C163.33,49.187 166.016,46.5 169.33,46.5 L179.996,46.5 C183.31,46.5 185.996,49.187 185.996,52.5 L185.996,229.5 Z"
                    id="Path"></path>
                  <path
                    d="M218.662,276 C218.662,279.313 215.976,282 212.662,282 L201.996,282 C198.682,282 195.996,279.313 195.996,276 L195.996,6 C195.996,2.687 198.682,0 201.996,0 L212.662,0 C215.976,0 218.662,2.687 218.662,6 L218.662,276 Z"
                    id="Path"></path>
                  <path
                    d="M251.328,214 C251.328,217.313 248.642,220 245.328,220 L234.662,220 C231.348,220 228.662,217.313 228.662,214 L228.662,68 C228.662,64.687 231.348,62 234.662,62 L245.328,62 C248.642,62 251.328,64.687 251.328,68 L251.328,214 Z"
                    id="Path"></path>
                  <path
                    d="M283.994,183 C283.994,186.313 281.308,189 277.994,189 L267.328,189 C264.014,189 261.328,186.313 261.328,183 L261.328,99 C261.328,95.687 264.014,93 267.328,93 L277.994,93 C281.308,93 283.994,95.687 283.994,99 L283.994,183 Z"
                    id="Path"></path>
                  <path
                    d="M316.66,198.5 C316.66,201.813 313.974,204.5 310.66,204.5 L299.994,204.5 C296.68,204.5 293.994,201.813 293.994,198.5 L293.994,83.5 C293.994,80.187 296.68,77.5 299.994,77.5 L310.66,77.5 C313.974,77.5 316.66,80.187 316.66,83.5 L316.66,198.5 Z"
                    id="Path"></path>
                  <path
                    d="M349.326,167.496 C349.326,170.809 346.64,173.496 343.326,173.496 L332.66,173.496 C329.346,173.496 326.66,170.809 326.66,167.496 L326.66,114.496 C326.66,111.183 329.346,108.496 332.66,108.496 L343.326,108.496 C346.64,108.496 349.326,111.183 349.326,114.496 L349.326,167.496 Z"
                    id="Path"></path>
                  <path
                    d="M414.658,144.182 C414.658,147.496 411.972,150.182 408.658,150.182 L397.992,150.182 C394.678,150.182 391.992,147.496 391.992,144.182 L391.992,137.682 C391.992,134.369 394.678,131.682 397.992,131.682 L408.658,131.682 C411.972,131.682 414.658,134.369 414.658,137.682 L414.658,144.182 Z"
                    id="Path"></path>
                  <path
                    d="M381.992,152 C381.992,155.313 379.306,158 375.992,158 L365.326,158 C362.012,158 359.326,155.313 359.326,152 L359.326,130 C359.326,126.687 362.012,124 365.326,124 L375.992,124 C379.306,124 381.992,126.687 381.992,130 L381.992,152 Z"
                    id="Path"></path>
                </g>
              </g>
            </svg>