<svg width="1002px" height="142px" viewBox="0 0 1002 142" version="1.1" xmlns="http://www.w3.org/2000/svg" xmlns:xlink="http://www.w3.org/1999/xlink">
    <g id="Page-1" stroke="none" stroke-width="1" fill="none" fill-rule="evenodd">
        <g id="innerstorm" transform="translate(1.000000, 1.000000)" stroke="#000000">
            <path d="M814.915338,133.063488 C811.813696,132.409686 798.769239,129.586084 792.283987,128.27848 C785.798736,126.970876 778.655561,125.476472 776.305833,124.91607 C773.956104,124.449069 770.948451,123.795267 769.538614,123.421666 C767.000907,122.954665 766.906918,122.674464 766.906918,116.977048 L766.906918,111.092831 L773.29818,110.62583 C780.817312,110.065428 785.046823,108.104023 786.55065,104.461412 C787.396552,102.500007 787.678519,94.1873829 787.396552,74.1063255 C787.114584,49.0750542 786.926606,46.3664465 785.42278,44.6852417 C783.636986,42.8172364 777.339713,40.7624305 773.110202,40.7624305 C770.760473,40.7624305 770.666484,40.57563 770.666484,34.6914132 L770.666484,28.6203959 L804.502576,28.6203959 L838.338669,28.6203959 L838.338669,34.6914132 L838.338669,40.7624305 L834.95506,40.7624305 C829.785657,40.7624305 824.334286,42.7238361 822.266525,45.2456433 C820.57472,47.3938494 820.480731,49.2618547 820.480731,71.0241167 L820.480731,94.4675837 L823.206416,100.165 C829.597678,113.614638 847.361627,119.872456 859.956173,113.147637 C867.851261,108.851225 868.321207,106.889819 868.415196,76.2545316 C868.415196,47.0202484 868.039239,45.0588428 862.493879,42.5370356 C860.332129,41.6030329 856.94852,40.7624305 855.068737,40.7624305 L851.497149,40.7624305 L851.497149,34.6914132 L851.497149,28.6203959 L884.863296,28.6203959 L918.229443,28.6203959 L918.229443,34.598013 L918.229443,40.4822297 L913.342007,41.0426313 C910.616322,41.3228321 907.232713,42.0700343 905.916865,42.6304359 C901.217408,44.778642 900.841451,46.8334478 900.841451,69.1561114 C900.841451,88.303166 901.029429,90.2645715 903.003201,96.0553882 C905.634897,103.62081 910.992279,109.972028 917.665508,113.334437 C921.519063,115.295843 923.774803,115.762844 929.508141,115.856245 C939.564979,115.856245 943.606512,113.614638 946.614165,106.422818 C948.681926,101.192403 948.775915,100.0716 948.775915,74.8535276 C948.775915,47.2070489 948.587937,45.8994452 944.264436,43.0974372 C943.042578,42.3502351 939.846947,41.4162324 937.027272,41.0426313 L931.857869,40.2954292 L931.575902,34.4112124 L931.293934,28.6203959 L965.693962,28.6203959 L1000,28.6203959 L1000,34.6914132 L1000,40.7624305 L995.112564,40.7624305 C989.285237,40.7624305 984.021845,43.0974372 982.42403,46.3664465 C981.578127,48.0476513 981.202171,55.6130728 981.202171,73.919525 C981.202171,101.379203 980.450258,108.664424 976.972659,115.482644 C974.058996,121.27346 966.445875,127.904879 959.772646,130.613487 C955.073188,132.388092 952.72346,132.668293 941.256784,132.761693 C928.380271,132.761693 927.910325,132.668293 920.76715,129.586084 C915.127801,127.251077 911.744192,124.91607 906.104843,119.592255 L898.77369,112.680636 L895.390081,117.72425 C890.596634,124.91607 882.419578,130.053085 872.174762,132.294691 C866.629402,133.508895 853.094965,133.415495 847.737584,132.201291 C841.346322,130.800287 832.887298,126.410475 826.496037,121.27346 L820.762699,116.603447 L820.104775,121.460261 C819.916796,123.203732 819.728818,125.974606 819.54084,129.772884 C819.54084,132.936301 817.999006,134.033169 814.915338,133.063488 Z" id="m" transform="translate(883.453459, 81.012567) scale(-1, 1) rotate(-180.000000) translate(-883.453459, -81.012567) "></path>
            <polygon id="triangle-bottom" points="702.054407 133.473443 727.576605 90.5093202 752.808546 133.473443"></polygon>
            <polygon id="triangle-top" transform="translate(727.431477, 55.017219) scale(-1, 1) rotate(-180.000000) translate(-727.431477, -55.017219) " points="702.054407 76.4992803 727.576605 33.5351579 752.808546 76.4992803"></polygon>
            <path d="M630.716646,137.944611 C622.351612,135.422803 615.020458,130.285789 609.757066,123.467569 C605.527554,117.863553 601.016075,108.056525 601.767989,106.00172 C602.049956,105.347918 604.681652,105.067717 608.911164,105.254517 L615.678382,105.628118 L618.028111,110.858533 C623.57347,123.374169 634.852168,128.884785 648.762562,125.989376 C663.424868,123.000568 671.601924,108.616927 672.729794,83.8658563 C673.387718,66.7736076 669.628152,51.9229653 662.766944,45.1047458 C657.409563,39.6875304 649.232507,37.3525238 640.585506,38.5667272 C635.69807,39.3139293 634.946157,40.247932 632.878396,48.2803549 C631.28058,54.1645716 628.836863,57.433581 624.325384,59.3015863 C620.189861,61.0761913 617.088219,60.9827911 612.858708,58.7411847 C609.005153,56.8731794 606.185478,52.2965663 606.185478,48.0935544 C606.185478,39.5941301 616.148328,31.0947059 630.340689,27.4520956 C637.577853,25.5840902 654.119943,25.5840902 660.793172,27.5454958 C679.872969,33.1495118 694.817243,48.1869546 700.080635,67.1472086 C702.806321,76.8608363 702.806321,91.9916794 700.080635,101.144906 C694.723254,119.264557 681.846741,132.527395 664.458749,137.85121 C655.153824,140.653218 639.739604,140.746618 630.716646,137.944611 Z" id="o" transform="translate(651.905091, 83.031277) scale(-1, 1) rotate(-180.000000) translate(-651.905091, -83.031277) "></path>
            <path d="M551.953741,137.01819 C551.295817,136.83139 550.731882,135.617186 550.731882,134.496383 C550.731882,130.386771 544.528599,119.55234 539.641163,114.975727 C533.813836,109.651912 528.174487,107.130105 518.963551,105.635701 C511.35043,104.421497 510.880484,103.861096 511.444419,96.9494759 L511.726387,93.3068658 L520.937323,93.026665 L530.05427,92.7464642 L530.05427,60.2431716 C530.05427,25.5916729 530.618205,19.1470546 534.377771,12.7958365 C539.547174,3.92281118 548.006197,0 561.634623,0 C569.153755,0 570.84556,0.373601065 576.202941,2.89540825 C583.346116,6.16441756 587.387649,9.4334269 591.053226,14.7572421 C593.8729,18.7734535 597.726455,25.3114721 597.726455,26.0586743 C597.726455,26.7124761 588.515519,31.1956889 587.199671,31.1956889 C586.541747,31.1956889 584.943931,29.2342833 583.628083,26.8058764 C577.612778,15.5044442 566.898015,11.581633 563.890363,19.6140559 C563.420417,20.8282594 562.950471,37.7337075 562.950471,57.1609629 L562.856482,92.3728632 L579.868518,92.653064 L596.786564,92.8398645 L596.786564,98.9108815 L596.786564,104.981899 L579.774528,105.168699 L562.762493,105.4489 L562.856482,120.206142 C562.950471,130.293371 562.668504,135.430386 561.916591,136.364388 C560.88271,137.578592 554.397459,138.045593 551.953741,137.01819 Z" id="t" transform="translate(554.501229, 68.791527) scale(-1, 1) rotate(-180.000000) translate(-554.501229, -68.791527) "></path>
            <path d="M434.655287,136.318487 C429.767852,135.571285 422.624676,133.049478 416.985328,130.060669 C398.187498,120.253641 394.897878,98.4913795 410.12412,84.854941 C418.019208,77.7565208 425.632329,74.674312 452.889181,67.2022907 C469.243293,62.7190779 474.976631,60.3840713 475.916522,57.9556644 C476.19849,57.115062 476.480457,54.7800553 476.480457,52.91205 C476.480457,45.3466284 470.089195,41.7040181 455.802845,40.9568159 C445.464039,40.3964143 433.527417,42.2644197 427.888069,45.533429 C422.812655,48.335437 417.455273,53.6592521 415.293523,57.6754636 C413.319751,61.4114742 411.064011,62.5322774 405.894608,61.9718758 L402.698977,61.691675 L402.41701,50.9506444 C402.323021,45.0664276 402.510999,37.6878066 402.886956,34.6055978 L403.638869,29.0015819 L408.526305,28.7213811 C413.225762,28.4411803 413.507729,28.5345805 415.57549,31.8035899 C416.891339,33.8583957 418.301176,34.9791989 419.147078,34.6989981 C419.898991,34.4187973 422.436698,33.5781949 424.692438,32.7375925 C437.756929,27.9741789 460.972248,26.6665752 472.720891,29.9355845 C488.2291,34.2319968 498.473917,42.3578199 501.575559,52.7252495 C503.455342,59.2632681 502.797418,70.4713 500.165722,76.3555168 C495.654243,86.5361458 483.247676,93.3543648 456.272791,100.452785 C428.82796,107.738006 424.786427,109.512611 424.786427,114.836426 C424.786427,121.561245 435.4072,125.297256 452.513225,124.456653 C468.303401,123.709451 478.924175,119.132838 483.717621,111.007015 C486.06735,107.084204 486.161339,106.990804 491.142764,106.990804 L496.312167,106.990804 L496.030199,121.748046 L495.748232,136.411887 L492.552601,136.692088 C487.665165,137.15909 485.503415,136.225087 484.375545,133.236278 L483.247676,130.527671 L475.446576,133.329679 C468.115423,136.038286 464.900599,137.409037 450.896216,137.595838 C442.625171,137.782638 436.253103,136.505288 434.655287,136.318487 Z" id="s" transform="translate(451.581741, 82.872017) scale(-1, 1) rotate(-180.000000) translate(-451.581741, -82.872017) "></path>
            <path d="M281.922925,113.570611 C281.922925,113.10361 290.945883,107.312794 291.791785,107.312794 C292.261731,107.312794 293.953536,108.993998 295.739329,110.955404 C303.540429,120.10863 322.338258,124.965444 333.898923,120.949232 C344.989642,116.933021 352.508774,104.323985 354.0126,87.044936 L354.576535,80.2267166 L317.920768,80.2267166 C287.93823,80.2267166 281.077023,80.0399161 280.701066,78.9191129 C279.667185,76.3039054 282.956806,61.8268642 286.058447,55.4756461 C291.697796,43.7072126 300.908732,35.6747897 314.161202,31.0047764 C319.988529,28.9499705 322.526236,28.5763695 332.207118,28.5763695 C341.794011,28.5763695 344.519696,28.9499705 350.535001,31.0047764 C360.59184,34.367186 366.043211,37.7295955 373.092397,44.7346155 C379.671637,51.1792339 384.935029,59.9588589 387.566725,68.9252844 C389.446508,75.2765025 389.540497,90.9677472 387.754703,97.5991659 C382.5853,117.026421 364.633373,132.344065 342.921881,136.173476 C335.684716,137.387679 327.833331,138.157528 318.362013,136.677667 C308.890695,135.197806 305.729378,134.044313 299.715771,131.581315 C293.702164,129.118319 286.058447,122.437588 284.22286,119.420405 C282.387273,116.403222 281.922925,114.878215 281.922925,113.570611 Z M353.918611,62.2938655 C352.508774,50.6188323 345.17762,42.3062086 335.402749,41.2788057 C322.150279,39.9712019 313.973224,47.0696221 312.375408,61.3598629 L311.717484,67.1506794 L333.147009,67.1506794 L354.576535,67.1506794 L353.918611,62.2938655 Z" id="e" transform="translate(334.772221, 83.033012) scale(-1, 1) rotate(-180.000000) translate(-334.772221, -83.033012) "></path>
            <path d="M180.884593,132.819641 C180.19534,132.695107 176.90572,131.979038 171.015733,130.671435 C162.431391,128.741162 156.165448,127.309025 152.217904,126.375022 C146.296587,125.067419 140.657239,123.759815 139.811336,123.573014 C138.401499,123.199413 138.119532,121.98521 138.119532,117.221796 L138.119532,111.33758 L143.006967,110.683778 C150.244131,109.656375 153.909708,107.88177 154.75561,104.799561 C155.131567,103.398557 155.507524,90.1357192 155.507524,75.3784771 C155.507524,49.693404 155.413534,48.4792005 153.533752,45.9573933 C151.278012,42.9685848 146.860522,41.1005795 141.691119,41.1005795 L138.119532,41.0071792 L138.119532,34.9361619 L138.119532,28.8651446 L170.545787,28.8651446 L202.972042,28.8651446 L202.972042,34.9361619 C202.972042,41.0071792 202.972042,41.0071792 200.246357,41.0071792 C198.742531,41.0071792 196.016846,41.6609811 194.231052,42.4081832 C189.061649,44.5563893 187.933779,49.5066034 187.933779,69.5876606 C187.933779,88.0809133 189.343616,97.5143402 193.29116,104.61276 C196.58078,110.590377 199.96439,113.485786 206.073684,115.260391 C216.506479,118.3426 224.307578,114.326388 226.37534,104.706161 C227.503209,99.3823455 227.691188,51.5614093 226.563318,47.6385981 C225.717416,44.4629891 222.051839,42.0345821 217.070414,41.1939798 L212.840903,40.5401779 L212.558935,34.6559611 L212.276968,28.8651446 L244.327267,28.8651446 L276.283576,28.8651446 L276.283576,34.9361619 C276.283576,40.913779 276.283576,41.0071792 273.745869,41.0071792 C269.516358,41.0071792 264.440944,42.7817843 262.561161,44.8365901 C260.869356,46.6111952 260.775367,49.0396021 260.211432,76.8728814 C259.741486,103.865558 259.553508,107.414768 257.767714,112.178182 C252.880279,125.908021 240.567701,133.473443 223.273698,133.473443 C219.044186,133.473443 213.780794,133.006441 211.431065,132.44604 C206.261662,131.325237 198.084607,126.375022 191.787334,120.771006 L186.993888,116.474594 L186.993888,122.919213 C186.993888,133.193242 186.429953,134.033844 180.884593,132.819641 Z" id="n" transform="translate(207.201554, 81.169294) scale(-1, 1) rotate(-180.000000) translate(-207.201554, -81.169294) "></path>
            <path d="M103.343548,132.39934 C100.241906,131.745538 92.628785,130.157733 86.4255014,128.85013 C71.0112814,125.58112 63.7741172,123.806515 62.5522583,123.059313 C61.9883234,122.779112 61.5183777,120.070505 61.5183777,116.988296 L61.5183777,111.57108 L67.0637373,110.917279 C74.1129232,110.076676 78.6244022,107.83507 79.4703046,104.846261 C79.8462611,103.538658 80.1282286,90.8362214 80.2222177,76.5459807 C80.3162069,43.295486 80.1282286,42.6416841 67.6276722,41.4274807 L61.9883234,40.8670791 L61.9883234,35.2630631 L61.9883234,29.6590471 L95.3544702,29.6590471 L128.720617,29.6590471 L128.720617,35.2630631 C128.720617,40.7736788 128.720617,40.8670791 125.900943,41.1472799 C124.397116,41.2406801 121.295475,42.0812825 119.133724,42.8284846 C115.844104,44.0426881 114.904213,44.8832905 114.05831,47.6852985 C113.243737,50.3005059 112.648473,70.5372303 112.272516,108.395471 L112.272516,132.39934 C112.96177,133.831477 109.985448,133.831477 103.343548,132.39934 Z" id="i" transform="translate(95.119497, 81.566245) scale(-1, 1) rotate(-180.000000) translate(-95.119497, -81.566245) "></path>
            <path d="M39.1486649,81.7388452 C38.5222679,81.6590113 37.5511455,81.4634272 36.2352974,81.152093 C29.0921223,79.4708883 18.8473054,73.8668723 13.7718915,68.8232579 C-3.52211132,51.5442087 -4.74397022,21.469323 11.3281737,7.08568205 C16.4035876,2.41566875 20.3511318,0.921264494 27.0243611,0.921264494 C33.9795579,0.921264494 39.9948633,4.37707434 43.6604399,10.7282924 C45.9161795,14.4643031 46.1981469,15.7719068 45.8221903,21.469323 C45.4462337,28.847944 44.0363965,31.276351 37.5511455,36.2265651 C33.5096122,39.3087738 33.2276447,39.4021741 25.4265456,39.1219733 C20.9150666,38.9351728 16.7795442,39.1219733 16.2156093,39.4955744 C14.711783,40.429577 14.6177938,45.8467925 16.027631,50.8904068 C17.6254465,56.7746236 25.3325565,63.592843 33.8855688,66.6750518 C46.1041577,71.1582646 45.0702771,70.2242619 45.0702771,76.57548 C45.0702771,82.0860957 45.0702771,82.179496 42.5325702,82.0860957 C41.5300193,82.0238288 40.4020508,81.9080787 39.1486649,81.7388452 Z" id="apostrophe" transform="translate(22.980594, 41.512280) scale(-1, 1) rotate(-180.000000) translate(-22.980594, -41.512280) "></path>
        </g>
    </g>
</svg>